<?xml version="1.0" encoding="UTF-8" standalone="no"?>
<svg
   xmlns:dc="http://purl.org/dc/elements/1.1/"
   xmlns:cc="http://creativecommons.org/ns#"
   xmlns:rdf="http://www.w3.org/1999/02/22-rdf-syntax-ns#"
   xmlns:svg="http://www.w3.org/2000/svg"
   xmlns="http://www.w3.org/2000/svg"
   xmlns:sodipodi="http://sodipodi.sourceforge.net/DTD/sodipodi-0.dtd"
   xmlns:inkscape="http://www.inkscape.org/namespaces/inkscape"
   width="16"
   height="16"
   version="1.1"
   viewBox="0 0 16 16"
   id="svg6"
   sodipodi:docname="icon_gamevolutions.svg"
   inkscape:version="0.92.3 (2405546, 2018-03-11)">
  <metadata
     id="metadata12">
    <rdf:RDF>
      <cc:Work
         rdf:about="">
        <dc:format>image/svg+xml</dc:format>
        <dc:type
           rdf:resource="http://purl.org/dc/dcmitype/StillImage" />
        <dc:title></dc:title>
      </cc:Work>
    </rdf:RDF>
  </metadata>
  <defs
     id="defs10">
    <inkscape:path-effect
       fuse_tolerance="0"
       vertical_pattern="false"
       prop_units="false"
       tang_offset="0"
       normal_offset="0"
       spacing="3"
       scale_y_rel="false"
       prop_scale="0.5"
       copytype="repeated_stretched"
       pattern="m 143.11644,169.3412 h 2.3986 v 10.66044 h -2.3986 z"
       is_visible="true"
       id="path-effect4589"
       effect="skeletal" />
    <inkscape:path-effect
       fuse_tolerance="0"
       vertical_pattern="false"
       prop_units="false"
       tang_offset="0"
       normal_offset="0"
       spacing="0"
       scale_y_rel="false"
       prop_scale="15.862735"
       copytype="repeated_stretched"
       pattern="m 143.11644,169.3412 h 2.3986 v 10.66044 h -2.3986 z"
       is_visible="true"
       id="path-effect4580"
       effect="skeletal" />
  </defs>
  <sodipodi:namedview
     pagecolor="#ffffff"
     bordercolor="#666666"
     borderopacity="1"
     objecttolerance="10"
     gridtolerance="10"
     guidetolerance="10"
     inkscape:pageopacity="0"
     inkscape:pageshadow="2"
     inkscape:window-width="1920"
     inkscape:window-height="1017"
     id="namedview8"
     showgrid="true"
     inkscape:snap-bbox="false"
     inkscape:bbox-nodes="false"
     inkscape:zoom="17.832349"
     inkscape:cx="1.5792795"
     inkscape:cy="2.3960922"
     inkscape:window-x="-8"
     inkscape:window-y="-8"
     inkscape:window-maximized="1"
     inkscape:current-layer="g1863">
    <inkscape:grid
       type="xygrid"
       id="grid1052"
       empspacing="2" />
  </sodipodi:namedview>
  <text
     xml:space="preserve"
     style="font-style:normal;font-weight:normal;font-size:5.66760015px;line-height:1.25;font-family:sans-serif;letter-spacing:0px;word-spacing:0px;fill:#ffffff;fill-opacity:1;stroke:none;stroke-width:0.14169"
     x="96.712189"
     y="-25.824018"
     id="text3915"><tspan
       sodipodi:role="line"
       id="tspan3913"
       x="96.712189"
       y="-25.824018"
       style="fill:#ffffff;stroke:none;stroke-width:0.14169">Spine</tspan></text>
  <text
     id="text3923"
     y="-18.031658"
     x="92.844872"
     style="font-style:normal;font-weight:normal;font-size:3.24179411px;line-height:1.25;font-family:sans-serif;letter-spacing:0px;word-spacing:0px;fill:#ffffff;fill-opacity:1;stroke:none;stroke-width:0.08104485"
     xml:space="preserve"><tspan
       style="fill:#ffffff;stroke:none;stroke-width:0.08104485"
       y="-18.031658"
       x="92.844872"
       id="tspan3921"
       sodipodi:role="line">2D Animation</tspan></text>
  <text
     xml:space="preserve"
     style="font-style:normal;font-weight:normal;font-size:5.66760015px;line-height:1.25;font-family:sans-serif;letter-spacing:0px;word-spacing:0px;fill:#ffffff;fill-opacity:1;stroke:none;stroke-width:0.14169"
     x="6.7864108"
     y="-17.772469"
     id="text3915-5"><tspan
       sodipodi:role="line"
       id="tspan3913-7"
       x="6.7864108"
       y="-17.772469"
       style="fill:#ffffff;stroke:none;stroke-width:0.14169">Spine</tspan></text>
  <text
     id="text3923-0"
     y="-9.9801092"
     x="2.9190936"
     style="font-style:normal;font-weight:normal;font-size:3.24179411px;line-height:1.25;font-family:sans-serif;letter-spacing:0px;word-spacing:0px;fill:#ffffff;fill-opacity:1;stroke:none;stroke-width:0.08104485"
     xml:space="preserve"><tspan
       style="fill:#ffffff;stroke:none;stroke-width:0.08104485"
       y="-9.9801092"
       x="2.9190936"
       id="tspan3921-7"
       sodipodi:role="line">2D Animation</tspan></text>
  <g
     id="g1863"
     transform="matrix(0.10805412,0,0,0.10805412,0.68113448,0.68113419)">
    <g
       style="display:inline;fill:#000000;fill-opacity:0"
       inkscape:label="circle big"
       id="layer3">
      <path
         inkscape:connector-curvature="0"
         id="path4485"
         d="m 42.273426,124.68764 c -37.8345497,0 -68.554086,30.71736 -68.554086,68.55191 1e-6,37.83455 30.7195363,68.55409 68.554086,68.55409 37.834551,0 68.551914,-30.71954 68.551914,-68.55409 0,-37.83455 -30.717363,-68.55191 -68.551914,-68.55191 z m 0,4.42692 c 35.442065,0 64.124984,28.68292 64.124984,64.12499 0,35.44207 -28.682919,64.12717 -64.124984,64.12717 -35.4420639,0 -64.127166,-28.6851 -64.127166,-64.12717 0,-35.44207 28.6851021,-64.12499 64.127166,-64.12499 z"
         style="color:#000000;font-style:normal;font-variant:normal;font-weight:normal;font-stretch:normal;font-size:medium;line-height:normal;font-family:sans-serif;font-variant-ligatures:normal;font-variant-position:normal;font-variant-caps:normal;font-variant-numeric:normal;font-variant-alternates:normal;font-feature-settings:normal;text-indent:0;text-align:start;text-decoration:none;text-decoration-line:none;text-decoration-style:solid;text-decoration-color:#000000;letter-spacing:normal;word-spacing:normal;text-transform:none;writing-mode:lr-tb;direction:ltr;text-orientation:mixed;dominant-baseline:auto;baseline-shift:baseline;text-anchor:start;white-space:normal;shape-padding:0;clip-rule:nonzero;display:inline;overflow:visible;visibility:visible;opacity:1;isolation:auto;mix-blend-mode:normal;color-interpolation:sRGB;color-interpolation-filters:linearRGB;solid-color:#000000;solid-opacity:1;vector-effect:none;fill:#000000;fill-opacity:0;fill-rule:nonzero;stroke:none;stroke-width:4.42692041;stroke-linecap:butt;stroke-linejoin:miter;stroke-miterlimit:4;stroke-dasharray:none;stroke-dashoffset:0;stroke-opacity:1;color-rendering:auto;image-rendering:auto;shape-rendering:auto;text-rendering:auto;enable-background:accumulate"
         transform="matrix(0.75633576,0,0,0.75633576,35.913218,-78.421684)" />
    </g>
    <g
       style="display:inline;fill:#a5b7f3;fill-opacity:1"
       inkscape:label="round point circle"
       id="layer4"
       transform="matrix(-0.79321746,-0.79321746,0.79321746,-0.79321746,67.928664,175.38712)">
      <path
         sodipodi:nodetypes="sccsccsccsccsc"
         id="circle4521"
         d="m 42.273657,107.82989 c -12.265978,0 -23.92748,2.59347 -34.4729124,7.25427 l 2.3892684,2.38869 c 9.857355,-4.17638 20.699529,-6.48648 32.083644,-6.48648 11.383923,0 22.224899,2.31023 32.081915,6.48648 l 2.389268,-2.38927 c -10.544904,-4.66047 -22.20566,-7.25369 -34.471183,-7.25369 z m -32.083644,161.17794 -2.388692,2.38869 c 10.545305,4.66089 22.206544,7.25543 34.472336,7.25543 12.265338,0 23.925828,-2.59429 34.470607,-7.25485 l -2.388692,-2.38869 c -9.85696,4.17639 -20.698075,6.48647 -32.081915,6.48647 -11.384115,0 -22.226289,-2.31046 -32.083644,-6.48705 z"
         style="color:#000000;font-style:normal;font-variant:normal;font-weight:normal;font-stretch:normal;font-size:medium;line-height:normal;font-family:sans-serif;font-variant-ligatures:normal;font-variant-position:normal;font-variant-caps:normal;font-variant-numeric:normal;font-variant-alternates:normal;font-feature-settings:normal;text-indent:0;text-align:start;text-decoration:none;text-decoration-line:none;text-decoration-style:solid;text-decoration-color:#000000;letter-spacing:normal;word-spacing:normal;text-transform:none;writing-mode:lr-tb;direction:ltr;text-orientation:mixed;dominant-baseline:auto;baseline-shift:baseline;text-anchor:start;white-space:normal;shape-padding:0;clip-rule:nonzero;display:inline;overflow:visible;visibility:visible;opacity:1;isolation:auto;mix-blend-mode:normal;color-interpolation:sRGB;color-interpolation-filters:linearRGB;solid-color:#000000;solid-opacity:1;vector-effect:none;fill:#a5b7f3;fill-opacity:1;fill-rule:nonzero;stroke:none;stroke-width:3.15752649;stroke-linecap:butt;stroke-linejoin:miter;stroke-miterlimit:4;stroke-dasharray:none;stroke-dashoffset:0;stroke-opacity:1;color-rendering:auto;image-rendering:auto;shape-rendering:auto;text-rendering:auto;enable-background:accumulate"
         inkscape:connector-curvature="0"
         transform="matrix(0.75633576,0,0,0.75633576,35.913218,-78.421684)" />
    </g>
    <path
       style="opacity:1;fill:#a5b7f3;fill-opacity:1;stroke:none;stroke-width:1;stroke-linejoin:round;stroke-miterlimit:4;stroke-dasharray:none;stroke-dashoffset:0;stroke-opacity:1"
       d="M 8 1 A 6.9999997 6.9999997 0 0 0 1 8 A 6.9999997 6.9999997 0 0 0 8 15 A 6.9999997 6.9999997 0 0 0 15 8 A 6.9999997 6.9999997 0 0 0 8 1 z M 8.0019531 1.5175781 C 8.6234615 1.5175781 9.0883113 1.6902569 9.4335938 1.9492188 C 9.7788762 2.2081806 10.020404 2.5531551 10.175781 2.8984375 C 10.365687 3.2955123 10.471017 3.7610592 10.488281 4.2617188 L 10.488281 6.2128906 L 8.6230469 6.2128906 L 8.6230469 4.2617188 C 8.6230469 3.9164363 8.5535006 3.6759195 8.3808594 3.46875 C 8.2945388 3.3824294 8.1573302 3.3300781 8.0019531 3.3300781 C 7.6739348 3.3300781 7.5182752 3.5724414 7.4492188 3.796875 C 7.3974264 3.934988 7.3789062 4.0890775 7.3789062 4.2617188 L 7.3789062 11.892578 C 7.3789062 12.255125 7.4660307 12.497595 7.6386719 12.6875 C 7.7249925 12.773821 7.846576 12.826172 8.0019531 12.826172 C 8.3299714 12.826172 8.485631 12.618337 8.5546875 12.359375 C 8.6064799 12.238526 8.6230469 12.082483 8.6230469 11.892578 L 8.6230469 9.5976562 L 7.8808594 9.5976562 L 7.8808594 8.0253906 L 10.488281 8.0253906 L 10.488281 14.34375 L 9.3828125 14.34375 L 9.1582031 13.740234 C 8.8129207 14.171837 8.3112755 14.482422 7.7070312 14.482422 C 7.102787 14.482422 6.6896604 14.327007 6.3789062 14.050781 C 6.0681521 13.791819 5.8607692 13.464423 5.7226562 13.119141 C 5.5672792 12.722066 5.4983609 12.256205 5.515625 11.738281 L 5.515625 4.2617188 C 5.5328891 3.7610592 5.6362665 3.2955123 5.8261719 2.8984375 C 5.981549 2.5531551 6.2054988 2.2081806 6.5507812 1.9492188 C 6.8960637 1.6902569 7.3804448 1.5175781 8.0019531 1.5175781 z "
       transform="matrix(9.2546217,0,0,9.2546217,-6.303642,-6.3036392)"
       id="path1926" />
    <g
       style="display:inline"
       inkscape:label="pesquisa e desenvolvimento"
       id="layer7"
       transform="matrix(1.6431224,0,0,1.6431224,309.47629,-33.394394)">
      <g
         transform="matrix(0.84365057,0,0,0.84365057,130.60455,-85.451862)"
         id="g4647"
         style="display:inline" />
    </g>
  </g>
</svg>
