<?xml version="1.0" encoding="UTF-8" standalone="no"?>
<svg
   xmlns:dc="http://purl.org/dc/elements/1.1/"
   xmlns:cc="http://creativecommons.org/ns#"
   xmlns:rdf="http://www.w3.org/1999/02/22-rdf-syntax-ns#"
   xmlns:svg="http://www.w3.org/2000/svg"
   xmlns="http://www.w3.org/2000/svg"
   xmlns:sodipodi="http://sodipodi.sourceforge.net/DTD/sodipodi-0.dtd"
   xmlns:inkscape="http://www.inkscape.org/namespaces/inkscape"
   width="16"
   height="16"
   version="1.1"
   viewBox="0 0 16 16"
   id="svg6"
   sodipodi:docname="icon_spine.svg"
   inkscape:version="0.92.2pre0 (973e216, 2017-07-25)">
  <metadata
     id="metadata12">
    <rdf:RDF>
      <cc:Work
         rdf:about="">
        <dc:format>image/svg+xml</dc:format>
        <dc:type
           rdf:resource="http://purl.org/dc/dcmitype/StillImage" />
        <dc:title></dc:title>
      </cc:Work>
    </rdf:RDF>
  </metadata>
  <defs
     id="defs10" />
  <sodipodi:namedview
     pagecolor="#ffffff"
     bordercolor="#666666"
     borderopacity="1"
     objecttolerance="10"
     gridtolerance="10"
     guidetolerance="10"
     inkscape:pageopacity="0"
     inkscape:pageshadow="2"
     inkscape:window-width="1920"
     inkscape:window-height="994"
     id="namedview8"
     showgrid="true"
     inkscape:snap-bbox="true"
     inkscape:bbox-nodes="true"
     inkscape:zoom="13.278771"
     inkscape:cx="-3.7021769"
     inkscape:cy="14.555661"
     inkscape:window-x="0"
     inkscape:window-y="0"
     inkscape:window-maximized="1"
     inkscape:current-layer="svg6">
    <inkscape:grid
       type="xygrid"
       id="grid1052"
       empspacing="2" />
  </sodipodi:namedview>
  <path
     style="fill:#a5b7f3;fill-opacity:1;stroke-width:0.11666667"
     d="M 8 1 A 7 7 0 0 0 1 8 A 7 7 0 0 0 8 15 A 7 7 0 0 0 15 8 A 7 7 0 0 0 8 1 z M 6.0859375 2.3203125 C 6.0859375 2.3203125 7.0445218 2.319438 8.1367188 2.578125 C 8.9650201 2.7742981 9.8176039 2.6900493 10.035156 2.7988281 C 10.249248 2.9058722 10.473196 3.0905051 10.353516 3.8085938 C 10.274815 4.2808068 9.915167 5.0726728 8.7304688 5.1503906 C 7.7750745 5.2131045 6.6855307 4.9520924 5.9960938 4.296875 C 5.4581484 3.7856341 5.4875309 2.4400041 6.0859375 2.3203125 z M 9.3164062 6.1875 C 9.3538862 6.188402 9.382902 6.1917187 9.40625 6.1992188 C 9.5901054 6.2570635 9.7908603 6.3747323 9.7871094 6.9609375 C 9.7846678 7.3464216 9.601986 8.0216939 8.6699219 8.234375 C 7.918261 8.405891 7.0163749 8.3394221 6.3847656 7.90625 C 5.8919387 7.5682449 5.7445181 6.4936245 6.2050781 6.3222656 C 6.2050781 6.3222656 6.9677835 6.1989844 7.8691406 6.265625 C 8.4672666 6.3097943 9.0540005 6.180802 9.3164062 6.1875 z M 9.9101562 9.4140625 C 9.9391363 9.4125625 9.9638819 9.4122156 9.9824219 9.4160156 C 10.128358 9.4474506 10.290938 9.5242145 10.330078 9.9765625 C 10.355821 10.274008 10.262144 10.808258 9.5585938 11.039062 C 8.9912209 11.225217 8.293521 11.238025 7.7753906 10.949219 C 7.3711032 10.723874 7.1805427 9.9053854 7.5234375 9.7402344 C 7.5234375 9.7402344 8.1008965 9.591285 8.8007812 9.578125 C 9.2652141 9.569337 9.70734 9.4279725 9.9101562 9.4140625 z M 10.078125 12.380859 C 10.100945 12.381659 10.120566 12.384172 10.134766 12.388672 C 10.246635 12.423907 10.367434 12.494874 10.365234 12.851562 C 10.363695 13.086106 10.252704 13.497621 9.6855469 13.626953 C 9.2281685 13.731253 8.679199 13.689434 8.2949219 13.425781 C 7.9950803 13.220071 7.9052924 12.56713 8.1855469 12.462891 C 8.1855469 12.462891 8.6488191 12.389078 9.1972656 12.429688 C 9.5612058 12.456547 9.9184602 12.377059 10.078125 12.380859 z "
     id="path3847-3" />
  <text
     xml:space="preserve"
     style="font-style:normal;font-weight:normal;font-size:5.66760015px;line-height:1.25;font-family:sans-serif;letter-spacing:0px;word-spacing:0px;fill:#ffffff;fill-opacity:1;stroke:none;stroke-width:0.14169"
     x="96.712189"
     y="-25.824018"
     id="text3915"><tspan
       sodipodi:role="line"
       id="tspan3913"
       x="96.712189"
       y="-25.824018"
       style="fill:#ffffff;stroke:none;stroke-width:0.14169">Spine</tspan></text>
  <text
     id="text3923"
     y="-18.031658"
     x="92.844872"
     style="font-style:normal;font-weight:normal;font-size:3.24179411px;line-height:1.25;font-family:sans-serif;letter-spacing:0px;word-spacing:0px;fill:#ffffff;fill-opacity:1;stroke:none;stroke-width:0.08104485"
     xml:space="preserve"><tspan
       style="fill:#ffffff;stroke:none;stroke-width:0.08104485"
       y="-18.031658"
       x="92.844872"
       id="tspan3921"
       sodipodi:role="line">2D Animation</tspan></text>
</svg>
