<?xml version="1.0" encoding="UTF-8" standalone="no"?>
<svg
   xmlns:dc="http://purl.org/dc/elements/1.1/"
   xmlns:cc="http://creativecommons.org/ns#"
   xmlns:rdf="http://www.w3.org/1999/02/22-rdf-syntax-ns#"
   xmlns:svg="http://www.w3.org/2000/svg"
   xmlns="http://www.w3.org/2000/svg"
   xmlns:sodipodi="http://sodipodi.sourceforge.net/DTD/sodipodi-0.dtd"
   xmlns:inkscape="http://www.inkscape.org/namespaces/inkscape"
   width="16"
   height="16"
   version="1.1"
   viewBox="0 0 16 16"
   id="svg6"
   sodipodi:docname="icon_blender.svg"
   inkscape:version="0.92.3 (2405546, 2018-03-11)">
  <metadata
     id="metadata12">
    <rdf:RDF>
      <cc:Work
         rdf:about="">
        <dc:format>image/svg+xml</dc:format>
        <dc:type
           rdf:resource="http://purl.org/dc/dcmitype/StillImage" />
        <dc:title />
      </cc:Work>
    </rdf:RDF>
  </metadata>
  <defs
     id="defs10" />
  <sodipodi:namedview
     pagecolor="#ffffff"
     bordercolor="#666666"
     borderopacity="1"
     objecttolerance="10"
     gridtolerance="10"
     guidetolerance="10"
     inkscape:pageopacity="0"
     inkscape:pageshadow="2"
     inkscape:window-width="1920"
     inkscape:window-height="1017"
     id="namedview8"
     showgrid="true"
     inkscape:snap-bbox="false"
     inkscape:bbox-nodes="false"
     inkscape:zoom="50.4375"
     inkscape:cx="8"
     inkscape:cy="8"
     inkscape:window-x="-8"
     inkscape:window-y="-8"
     inkscape:window-maximized="1"
     inkscape:current-layer="svg6">
    <inkscape:grid
       type="xygrid"
       id="grid1052"
       empspacing="2" />
  </sodipodi:namedview>
  <text
     xml:space="preserve"
     style="font-style:normal;font-weight:normal;font-size:5.66760015px;line-height:1.25;font-family:sans-serif;letter-spacing:0px;word-spacing:0px;fill:#ffffff;fill-opacity:1;stroke:none;stroke-width:0.14169"
     x="96.712189"
     y="-25.824018"
     id="text3915"><tspan
       sodipodi:role="line"
       id="tspan3913"
       x="96.712189"
       y="-25.824018"
       style="fill:#ffffff;stroke:none;stroke-width:0.14169">Spine</tspan></text>
  <text
     id="text3923"
     y="-18.031658"
     x="92.844872"
     style="font-style:normal;font-weight:normal;font-size:3.24179411px;line-height:1.25;font-family:sans-serif;letter-spacing:0px;word-spacing:0px;fill:#ffffff;fill-opacity:1;stroke:none;stroke-width:0.08104485"
     xml:space="preserve"><tspan
       style="fill:#ffffff;stroke:none;stroke-width:0.08104485"
       y="-18.031658"
       x="92.844872"
       id="tspan3921"
       sodipodi:role="line">2D Animation</tspan></text>
  <text
     xml:space="preserve"
     style="font-style:normal;font-weight:normal;font-size:5.66760015px;line-height:1.25;font-family:sans-serif;letter-spacing:0px;word-spacing:0px;fill:#ffffff;fill-opacity:1;stroke:none;stroke-width:0.14169"
     x="6.7864108"
     y="-17.772469"
     id="text3915-5"><tspan
       sodipodi:role="line"
       id="tspan3913-7"
       x="6.7864108"
       y="-17.772469"
       style="fill:#ffffff;stroke:none;stroke-width:0.14169">Spine</tspan></text>
  <text
     id="text3923-0"
     y="-9.9801092"
     x="2.9190936"
     style="font-style:normal;font-weight:normal;font-size:3.24179411px;line-height:1.25;font-family:sans-serif;letter-spacing:0px;word-spacing:0px;fill:#ffffff;fill-opacity:1;stroke:none;stroke-width:0.08104485"
     xml:space="preserve"><tspan
       style="fill:#ffffff;stroke:none;stroke-width:0.08104485"
       y="-9.9801092"
       x="2.9190936"
       id="tspan3921-7"
       sodipodi:role="line">2D Animation</tspan></text>
  <path
     style="opacity:1;fill:#a5b7f3;fill-opacity:1;stroke:none;stroke-width:0.83333325;stroke-linejoin:round;stroke-miterlimit:4;stroke-dasharray:none;stroke-dashoffset:0;stroke-opacity:1"
     d="m 7.6894531,1.5 c -0.1920056,0 -0.3841253,0.073578 -0.53125,0.2207031 -0.2942493,0.2942493 -0.2942493,0.7662976 0,1.0605469 l 1.7246094,1.7246094 a 5,5 0 0 0 -0.074219,0.00391 C 8.791555,4.5086208 8.7771044,4.5 8.7597656,4.5 H 2.7519531 C 2.3358218,4.5 2,4.8358218 2,5.2519531 c 0,0.4161314 0.3358218,0.75 0.7519531,0.75 H 5.4296875 A 5,5 0 0 0 5.0253906,6.4746094 L 2.2207031,9.2792969 c -0.2942493,0.2942493 -0.2942493,0.7682511 0,1.0625001 0.2942493,0.294249 0.7662976,0.294249 1.0605469,0 L 4.0058594,9.6171875 A 5,5 0 0 0 9,14.5 5,5 0 0 0 14,9.5 5,5 0 0 0 12.025391,5.5253906 L 8.2207031,1.7207031 C 8.0735785,1.5735785 7.8814587,1.5 7.6894531,1.5 Z M 9,6.9882812 A 2.5117676,2.5117676 0 0 1 11.511719,9.5 2.5117676,2.5117676 0 0 1 9,12.011719 2.5117676,2.5117676 0 0 1 6.4882812,9.5 2.5117676,2.5117676 0 0 1 9,6.9882812 Z M 9,7.765625 A 1.7337455,1.7337455 0 0 0 7.265625,9.5 1.7337455,1.7337455 0 0 0 9,11.234375 1.7337455,1.7337455 0 0 0 10.734375,9.5 1.7337455,1.7337455 0 0 0 9,7.765625 Z"
     id="path995"
     inkscape:connector-curvature="0" />
</svg>
